<?xml version="1.0" standalone="no"?>
<!DOCTYPE svg PUBLIC "-//W3C//DTD SVG 20010904//EN"
 "http://www.w3.org/TR/2001/REC-SVG-20010904/DTD/svg10.dtd">
<svg version="1.0" xmlns="http://www.w3.org/2000/svg"
 width="800.000000pt" height="800.000000pt" viewBox="0 0 800.000000 800.000000"
 preserveAspectRatio="xMidYMid meet">
<metadata>
Created by potrace 1.11, written by Peter Selinger 2001-2013
</metadata>
<g transform="translate(0.000000,800.000000) scale(0.100000,-0.100000)"
fill="#000000" stroke="none">
<path d="M0 4000 l0 -4000 4000 0 4000 0 0 4000 0 4000 -4000 0 -4000 0 0
-4000z m3310 3040 c0 -5 -2 -10 -4 -10 -3 0 -8 5 -11 10 -3 6 -1 10 4 10 6 0
11 -4 11 -10z m43 -15 c1 -5 -6 -11 -15 -13 -11 -2 -18 3 -18 13 0 17 30 18
33 0z m-1583 -289 c0 -2 -9 -6 -20 -9 -11 -3 -18 -1 -14 4 5 9 34 13 34 5z
m103 -13 c4 -2 7 -14 7 -26 0 -12 -4 -17 -8 -12 -4 6 -23 21 -42 33 l-35 23
35 -7 c19 -3 38 -8 43 -11z m-1818 -3 c-3 -5 -14 -10 -23 -10 -15 0 -15 2 -2
10 20 13 33 13 25 0z m330 -9 c17 -11 15 -12 -20 -7 -22 3 -64 6 -92 6 -29 0
-53 3 -53 8 0 12 144 7 165 -7z m685 9 c16 -5 -11 -8 -75 -8 -76 1 -89 3 -55
8 61 10 100 10 130 0z m415 0 c-3 -5 -23 -9 -43 -9 l-37 2 40 7 c22 4 41 8 43
9 2 0 0 -3 -3 -9z m-1345 -10 c12 -8 12 -10 -5 -10 -11 0 -27 5 -35 10 -12 8
-12 10 5 10 11 0 27 -5 35 -10z m1463 3 c-7 -2 -19 -2 -25 0 -7 3 -2 5 12 5
14 0 19 -2 13 -5z m-719 -14 c-8 -13 -84 -15 -84 -2 0 7 15 11 44 10 25 -1 43
-4 40 -8z m1082 -14 c18 -14 18 -14 -8 -15 -16 0 -28 5 -28 11 0 5 -4 7 -10 4
-5 -3 -10 -1 -10 4 0 16 33 13 56 -4z m1557 -70 c-10 -13 -22 -25 -27 -25 -5
0 1 11 14 25 30 32 36 32 13 0z m-1470 -2 c-7 -2 -19 -2 -25 0 -7 3 -2 5 12 5
14 0 19 -2 13 -5z m243 -15 c3 -4 -8 -8 -25 -8 -16 0 -32 4 -36 9 -3 5 8 9 25
9 17 -1 33 -5 36 -10z m3515 2 c16 0 29 -3 29 -8 0 -11 -79 -2 -87 11 -4 7 0
8 11 4 10 -4 31 -7 47 -7z m-2721 -10 c0 -5 -16 -10 -36 -10 -21 0 -33 4 -29
10 3 6 19 10 36 10 16 0 29 -4 29 -10z m3037 4 c-3 -3 -12 -4 -19 -1 -8 3 -5
6 6 6 11 1 17 -2 13 -5z m-3342 -13 c13 -5 -2 -10 -49 -14 -71 -7 -110 2 -66
14 34 9 91 9 115 0z m63 3 c12 -4 22 -10 22 -15 0 -10 -40 -3 -54 11 -11 11
-2 13 32 4z m625 -1 c-7 -2 -21 -2 -30 0 -10 3 -4 5 12 5 17 0 24 -2 18 -5z
m-903 -13 c12 -8 10 -10 -10 -9 -14 0 -43 4 -65 8 l-40 9 50 1 c28 0 57 -4 65
-9z m637 -6 c-3 -3 -12 -4 -19 -1 -8 3 -5 6 6 6 11 1 17 -2 13 -5z m630 -1835
c12 -12 131 -12 363 -1 80 4 148 4 151 -1 3 -5 9 -8 13 -7 3 1 25 -2 49 -6 23
-4 79 -8 125 -8 51 -1 85 -5 90 -12 4 -7 43 -17 87 -24 44 -7 83 -17 87 -23 5
-8 10 -7 20 1 9 7 19 8 28 2 8 -6 25 -10 38 -10 14 0 22 -6 22 -17 0 -9 3 -13
6 -10 4 3 16 2 27 -4 15 -8 18 -8 12 1 -11 18 36 -9 57 -32 15 -18 33 -25 66
-27 7 -1 10 -5 7 -11 -3 -5 1 -10 10 -10 9 0 21 -5 28 -10 7 -6 21 -17 32 -25
17 -13 18 -16 5 -25 -12 -8 -9 -9 13 -6 19 3 27 0 27 -10 0 -8 7 -14 15 -14 8
0 15 -6 15 -14 0 -8 6 -17 13 -19 9 -4 8 -8 -3 -16 -13 -10 -13 -12 0 -21 21
-14 40 -12 40 3 0 8 3 7 10 -3 5 -9 5 -19 -1 -27 -7 -8 -7 -19 1 -33 13 -24 4
-100 -11 -100 -5 0 -9 -6 -9 -14 0 -12 -61 -49 -82 -51 -4 0 -13 -6 -19 -12
-7 -7 -20 -13 -29 -13 -8 0 -28 -7 -45 -16 -24 -12 -222 -69 -349 -99 -62 -15
-116 -39 -137 -61 -33 -36 -81 -58 -169 -78 -41 -10 -113 -29 -160 -42 -96
-27 -308 -43 -425 -33 -38 4 -101 9 -140 13 -197 17 -197 17 -210 109 -8 59
-24 70 -135 92 -207 40 -430 116 -430 145 0 6 -4 10 -10 10 -5 0 -19 9 -30 20
-11 11 -18 20 -15 20 3 0 -5 10 -17 22 -21 21 -21 23 -4 26 16 4 16 5 -3 19
-12 8 -19 19 -16 24 4 5 1 9 -4 9 -6 0 -11 14 -11 30 0 17 5 30 11 30 5 0 7 5
4 11 -4 6 2 13 14 16 11 3 19 9 16 13 -6 9 62 80 77 80 5 0 7 4 4 9 -6 9 36
41 55 41 6 0 23 8 37 19 86 60 150 78 378 101 50 5 111 18 137 29 27 12 73 21
112 22 40 1 79 9 98 19 39 22 50 23 64 9z m708 -1059 c6 -9 -35 -101 -58 -130
-32 -40 -140 -117 -213 -152 -147 -69 -284 -68 -432 4 -83 41 -182 118 -182
143 0 8 -11 25 -25 39 -31 31 -32 46 -2 46 12 0 128 2 258 3 162 1 240 6 250
14 8 6 66 13 139 16 69 3 145 10 170 15 62 13 88 14 95 2z m-365 -393 c0 -20
-56 -40 -77 -28 -16 9 -14 11 15 17 18 4 35 11 38 15 8 13 24 11 24 -4z"/>
</g>
</svg>
